<svg width="50" height="50" viewBox="0 0 50 50" fill="none" xmlns="http://www.w3.org/2000/svg">
<path d="M31.5917 39.5832H12.5" stroke="black" stroke-linecap="round" stroke-linejoin="round"/>
<path d="M36.458 35.4167C38.2057 35.4238 39.7648 36.5164 40.3679 38.1567C40.971 39.797 40.4911 41.6394 39.1643 42.7769C37.8375 43.9144 35.9435 44.1074 34.4145 43.2609C33.0672 42.5362 32.2453 41.1123 32.2916 39.5832V39.5832C32.2916 37.2821 34.157 35.4167 36.458 35.4167V35.4167" stroke="black" stroke-linecap="round" stroke-linejoin="round"/>
<path d="M8.33305 35.4167C10.0807 35.4238 11.6398 36.5164 12.2429 38.1567C12.846 39.797 12.3661 41.6394 11.0393 42.7769C9.7125 43.9144 7.81846 44.1074 6.28951 43.2609C4.94225 42.5362 4.12031 41.1123 4.16659 39.5832V39.5832C4.1666 37.2821 6.03199 35.4167 8.33305 35.4167V35.4167" stroke="black" stroke-linecap="round" stroke-linejoin="round"/>
<path d="M40.625 39.5831H42.7083C44.4342 39.5831 45.8333 38.184 45.8333 36.4581V30.4611C45.8333 29.6323 45.5041 28.8374 44.918 28.2514L41.6666 25L38.4497 15.349C37.8825 13.6476 36.2903 12.5 34.4968 12.5H8.33331" stroke="black" stroke-linecap="round" stroke-linejoin="round"/>
<path d="M41.6666 25H32.6963C30.6595 25 28.9212 23.5274 28.5864 21.5183L27.0833 12.5" stroke="black" stroke-linecap="round" stroke-linejoin="round"/>
<path d="M15.625 26.0417H21.875" stroke="black" stroke-linecap="round" stroke-linejoin="round"/>
<path d="M18.75 29.1667V22.9167" stroke="black" stroke-linecap="round" stroke-linejoin="round"/>
<path d="M4.16669 27.0834H8.33335" stroke="black" stroke-linecap="round" stroke-linejoin="round"/>
<path d="M6.15869 20.8334H10.4166" stroke="black" stroke-linecap="round" stroke-linejoin="round"/>
<path d="M31.25 12.5001V9.37508C31.25 8.22449 30.3173 7.29175 29.1667 7.29175H25C23.8494 7.29175 22.9167 8.22449 22.9167 9.37508V12.5001" stroke="black" stroke-linecap="round" stroke-linejoin="round"/>
</svg>
